<?xml version="1.0" encoding="UTF-8"?>
<svg id="Calque_2" data-name="Calque 2" xmlns="http://www.w3.org/2000/svg" viewBox="0 0 140.46 181.79">
  <defs>
    <style>
      .cls-1 {
        fill: #0f6fec;
      }

      .cls-2 {
        fill: #754c24;
      }
    </style>
  </defs>
  <g id="Calque_1-2" data-name="Calque 1">
    <g>
      <path d="M129.98,48.74s.02-.06.04-.08c.24-.16.47-.32.69-.51.08-.06.16-.12.24-.2,4.68-4.01,7.98-9.6,9.07-15.92.28-1.54.43-3.14.43-4.76s-.14-3.22-.43-4.76c-1.22-6.99-5.12-13.07-10.61-17.16-4.54-3.34-10.17-5.35-16.25-5.35-5.65,0-10.92,1.72-15.27,4.68-6,4.05-10.29,10.43-11.59,17.83-.28,1.54-.43,3.14-.43,4.76s.14,3.22.43,4.76c1.24,7.11,5.25,13.27,10.86,17.34-.95.69-1.86,1.44-2.71,2.25v.02c-2.94,2.75-5.25,6.14-6.72,9.97-.06.16-.12.32-.18.49-.55,1.72-.91,3.46-1.09,5.12-.02.12-.02.24-.04.36-.06.67-.1,1.34-.1,1.96-.06,1.66-.02,3.26-.1,4.92,0,.28-.02.55-.04.83-.06.87-.16,1.76-.34,2.69-2.92,15.05-16.65,27.12-31.68,29.15v-.41h-.08v-40.53c-1.34-6.89-5.29-12.86-10.78-16.83,5.49-3.97,9.44-9.95,10.78-16.83v-.04c.49-2.49.85-6.16,0-10.47,0-.08-.1-.55-.22-1.03-.81-3.48-3.52-10.8-10.72-15.92C38.67,1.88,33.2,0,27.29,0s-11.24,1.84-15.68,4.96C5.69,9.12,1.5,15.56.34,22.99c-.22,1.4-.34,2.82-.34,4.27s.12,2.88.34,4.27c.81,5.21,3.1,9.91,6.42,13.67,1.34,1.56,2.86,2.96,4.54,4.15-4.01,2.9-7.21,6.87-9.16,11.47-.06.16-.12.3-.18.47-.75,1.86-1.32,3.83-1.62,5.87v88.15c.45,6.46,2.37,11.69,5.29,15.74.18.26.38.55.61.79,1.56,1.9,3.36,3.57,5.37,4.98,3,2.11,6.46,3.65,10.19,4.42.75.14,1.54.26,2.31.34.24.04.49.06.71.08.04.02.08.02.12.02.28.02.55.04.83.06h.26c.2.02.41.02.63.02.61.02,1.2,0,1.8-.02.38-.02.79-.04,1.2-.08.38-.02.77-.06,1.13-.12.43-.04.85-.1,1.26-.18.2-.02.38-.06.59-.1.18-.02.36-.06.57-.12.3-.06.61-.14.91-.2,3.28-.85,6.34-2.31,9.01-4.23,4.44-3.16,7.88-7.62,9.78-12.82.04-.12.08-.24.12-.36.49-1.6.85-3.3,1.03-5.1v-29.13c-1.09-6.32-9.28-6.28-10.74.12-.1.38-.16.79-.2,1.22v9.34c.16,4.17.49,14.2.49,14.99,0,1.38-.16,2.71-.49,3.99-.2.79-.47,1.56-.77,2.31-.12.26-.22.53-.34.77-1.09,2.59-2.84,4.6-4.96,6.02-.22.16-.45.32-.67.47-2.61,1.76-5.73,2.78-9.1,2.78-3.85,0-7.39-1.34-10.19-3.59-.12-.1-.26-.2-.38-.3-2.47-1.86-4.33-4.48-5.1-7.8-.04-.12-.06-.26-.08-.41,0-.04-.02-.1-.04-.16-.32-1.3-.51-2.67-.51-4.07,0-1.2.36-54.61.36-54.61.08.1.18.18.26.28,8.45,9.18,19.04,15.7,31.52,17.26.91.12,1.84.2,2.78.26,2.75.18,5.47.12,8.16-.18,12.62-1.36,24.23-7.7,32.25-17.18,2.75-3.24,5.08-6.87,6.89-10.78,1.78-3.87,3.04-8.02,3.71-12.38.63-4.17.06-7.74.87-11.42.02-.16.06-.32.12-.51.28-1.13.71-2.31,1.38-3.5,1.84-3.3,4.6-5.49,7.72-6.66.04-.02.08-.04.12-.04,1.09-.49,2.25-.85,3.46-1.07.97-.18,1.99-.28,3.02-.28.91,0,1.82.08,2.69.22,6.52,1.09,11.75,6.1,13.13,12.54v86.68c.04.45.04,2.31,0,2.75-.14,1.62-.51,3.16-1.07,4.6-.04.12-.1.24-.14.38-.97,2.67-2.63,4.74-4.66,6.24-.12.1-.26.2-.38.3-2.75,2.15-6.24,3.42-9.99,3.42s-7.25-1.28-10.03-3.44c-.12-.08-.24-.18-.36-.28-2.25-1.64-4.01-3.93-4.88-6.81v-.02c-.02-.06-.04-.1-.06-.16-.65-1.76-.91-7.52-.75-8.43v-.02c-.02-6.44.71-13.37.57-19.75-.02-.93-.06-1.86-.12-2.78-.04-.77-.12-1.54-.2-2.29-.04-.45-.63-4.07-3.57-5.19-2.09-.79-4.58-.06-5.89,1.48-1.26,1.48-1.36,3.61-1.36,3.97,0,.08.02.77.02,1.72v.02c.04,3.65-.08,7.37-.22,11.1v14.1c0,9.22,4.58,17.38,11.59,22.3,3.36,2.39,7.29,4.01,11.55,4.66.47.08.95.14,1.44.18,6.5.55,13.19-1.07,18.53-5,5.55-4.05,9.66-10.57,10.61-19.75v-89.19c-.24-1.92-.63-3.77-1.22-5.57,0-.04-.02-.06-.02-.08-1.84-5.04-5.15-9.38-9.38-12.54-.08-.04-.16-.1-.24-.16.08-.06.16-.12.24-.18.18-.14.38-.28.57-.45ZM10.13,27.26c0-2.47.53-4.82,1.48-6.95,2.09-4.74,6.28-8.35,11.38-9.66.34-.1.69-.16,1.03-.24.49-.1.99-.18,1.48-.22.59-.04,1.17-.08,1.78-.08.18,0,.36,0,.55.02,6.89.2,12.76,4.48,15.29,10.49.06.16.14.32.2.49.73,1.9,1.13,3.99,1.13,6.16,0,1.84-.28,3.61-.83,5.27-.14.47-.32.93-.51,1.38-2.31,5.53-7.43,9.56-13.55,10.37-.75.1-1.52.16-2.29.16s-1.54-.06-2.29-.16c-.99-.12-1.96-.34-2.9-.63-3.79-1.22-7.01-3.69-9.14-6.95-.53-.79-.99-1.62-1.36-2.49-.95-2.13-1.48-4.48-1.48-6.95ZM43.13,106.26v.34c-.06-.02-.14-.02-.2-.04l-.06.1c-6.58-.83-12.66-3.77-17.66-8.02-2.75-2.33-5.19-5.06-7.19-8.08-.34-.51-.67-1.01-.97-1.52-.28-.47-.55-.93-.81-1.4-.32-.59-.63-1.2-.93-1.8-.26-.55-.51-1.09-.75-1.66-1.32-3.04-2.23-6.26-2.63-9.52v-.04c-.12-.41-.22-.83-.3-1.26-.18-.99-.28-2.01-.28-3.04s.1-2.05.28-3.04c.04-.18.08-.38.12-.57.06-.28.14-.57.22-.83.02-.12.06-.24.1-.36.61-2.55,2.07-4.84,4.01-6.64l.2-.2c2.23-2.17,5.08-3.69,8.28-4.27h.02c.95-.18,1.92-.26,2.94-.26.95,0,1.88.08,2.78.24h.02c6.22,1.07,11.22,5.73,12.82,11.77v20.36l.1,7.07.16,12.28-.26.41ZM129.01,33.91c-2.31,5.53-7.43,9.56-13.57,10.37-.75.1-1.52.16-2.29.16s-1.54-.06-2.29-.16c-.99-.12-1.96-.34-2.9-.63-3.79-1.22-7.01-3.69-9.14-6.95-.53-.79-.99-1.62-1.36-2.49-.95-2.13-1.48-4.48-1.48-6.95s.53-4.82,1.48-6.95c.91-2.07,2.23-3.93,3.85-5.47.22-.22.47-.45.71-.65.24-.2.49-.41.75-.61.24-.18.51-.36.77-.55.28-.18.55-.36.83-.53.26-.16.55-.3.83-.45.67-.36,1.36-.67,2.09-.91.51-.2,1.01-.36,1.56-.51.34-.1.69-.16,1.03-.24.49-.08.99-.16,1.48-.22.59-.04,1.17-.08,1.78-.08.18,0,.36,0,.55.02,6.91.2,12.78,4.48,15.31,10.49.06.16.14.32.2.49.73,1.9,1.13,3.99,1.13,6.16,0,1.84-.28,3.61-.83,5.27-.14.47-.32.93-.51,1.38Z"/>
      <path class="cls-1" d="M44.47,27.26c0,1.84-.28,3.61-.83,5.27-.14.47-.32.93-.51,1.38-2.31,5.53-7.44,9.56-13.57,10.37-.75.1-1.52.16-2.29.16s-1.54-.06-2.29-.16c-.99-.12-1.97-.34-2.9-.63-3.79-1.22-7.02-3.69-9.14-6.95-.53-.79-.99-1.62-1.36-2.49-.95-2.13-1.48-4.48-1.48-6.95s.53-4.82,1.48-6.95c2.09-4.74,6.29-8.35,11.4-9.66.34-.1.69-.16,1.03-.24.49-.08.99-.16,1.48-.22.59-.04,1.18-.08,1.78-.08.18,0,.36,0,.55.02,6.89.2,12.77,4.48,15.31,10.49.06.16.14.32.2.49.73,1.9,1.14,3.99,1.14,6.16Z"/>
      <path class="cls-2" d="M130.35,27.26c0,1.84-.28,3.61-.83,5.27-.14.47-.32.93-.51,1.38-2.31,5.53-7.43,9.56-13.57,10.37-.75.1-1.52.16-2.29.16s-1.54-.06-2.29-.16c-.99-.12-1.96-.34-2.9-.63-3.79-1.22-7.01-3.69-9.14-6.95-.53-.79-.99-1.62-1.36-2.49-.95-2.13-1.48-4.48-1.48-6.95s.53-4.82,1.48-6.95c.91-2.07,2.23-3.93,3.85-5.47.22-.22.47-.45.71-.65.24-.2.49-.41.75-.61.24-.18.51-.36.77-.55.28-.18.55-.36.83-.53.26-.16.55-.3.83-.45.2-.1.41-.18.61-.26.49-.24.97-.45,1.48-.65.51-.2,1.01-.36,1.56-.51.34-.1.69-.16,1.03-.24.49-.08.99-.16,1.48-.22.59-.04,1.17-.08,1.78-.08.18,0,.36,0,.55.02,6.91.2,12.78,4.48,15.31,10.49.06.16.14.32.2.49.73,1.9,1.13,3.99,1.13,6.16Z"/>
    </g>
  </g>
</svg>